<svg xmlns="http://www.w3.org/2000/svg" xmlns:xlink="http://www.w3.org/1999/xlink" width="100" zoomAndPan="magnify" viewBox="0 0 75 74.999997" height="100" preserveAspectRatio="xMidYMid meet" version="1.0"><defs><clipPath id="d292338906"><path d="M 22 0 L 74.875 0 L 74.875 54 L 22 54 Z M 22 0 " clip-rule="nonzero"/></clipPath><clipPath id="4f6a3123e2"><path d="M 0 0 L 74.875 0 L 74.875 75 L 0 75 Z M 0 0 " clip-rule="nonzero"/></clipPath></defs><rect x="-7.5" width="90" fill="#ffffff" y="-7.5" height="89.999996" fill-opacity="1"/><rect x="-7.5" width="90" fill="#ffffff" y="-7.5" height="89.999996" fill-opacity="1"/><g clip-path="url(#d292338906)"><path stroke-linecap="butt" transform="matrix(-3.4375, 0, 0, 3.4375, 71.893157, 3.327894)" fill="none" stroke-linejoin="miter" d="M 5.999601 3.000068 C 5.999601 3.196659 5.980283 3.392113 5.942783 3.585295 C 5.904146 3.778477 5.847328 3.965977 5.771192 4.147795 C 5.696192 4.329613 5.604146 4.503477 5.493919 4.667113 C 5.384828 4.83075 5.260965 4.981886 5.121192 5.121659 C 4.982555 5.260295 4.830283 5.385295 4.666646 5.494386 C 4.50301 5.603477 4.330283 5.696659 4.148464 5.771659 C 3.96551 5.846659 3.77801 5.903477 3.584828 5.942114 C 3.391646 5.98075 3.197328 6.000068 2.999601 6.000068 C 2.80301 6.000068 2.607555 5.98075 2.414373 5.942114 C 2.221191 5.903477 2.033691 5.846659 1.851873 5.771659 C 1.670055 5.696659 1.497328 5.603477 1.333691 5.494386 C 1.170055 5.385295 1.017782 5.260295 0.879146 5.121659 C 0.739373 4.981886 0.615509 4.83075 0.505282 4.667113 C 0.396191 4.503477 0.304146 4.329613 0.228009 4.147795 C 0.153009 3.965977 0.0961912 3.778477 0.0575548 3.585295 C 0.0189185 3.392113 -0.000399715 3.196659 -0.000399715 3.000068 C -0.000399715 2.803477 0.0189185 2.608022 0.0575548 2.41484 C 0.0961912 2.221658 0.153009 2.034158 0.228009 1.85234 C 0.304146 1.670522 0.396191 1.496658 0.505282 1.333022 C 0.615509 1.169386 0.739373 1.018249 0.879146 0.878476 C 1.017782 0.73984 1.170055 0.61484 1.333691 0.505749 C 1.497328 0.396658 1.670055 0.303476 1.851873 0.228476 C 2.033691 0.153476 2.221191 0.0955218 2.414373 0.0580218 C 2.607555 0.0193855 2.80301 0.0000672837 2.999601 0.0000672837 C 3.197328 0.0000672837 3.391646 0.0193855 3.584828 0.0580218 C 3.77801 0.0955218 3.96551 0.153476 4.148464 0.228476 C 4.330283 0.303476 4.50301 0.396658 4.666646 0.505749 C 4.830283 0.61484 4.982555 0.73984 5.121192 0.878476 C 5.260965 1.018249 5.384828 1.169386 5.493919 1.333022 C 5.604146 1.496658 5.696192 1.670522 5.771192 1.85234 C 5.847328 2.034158 5.904146 2.221658 5.942783 2.41484 C 5.980283 2.608022 5.999601 2.803477 5.999601 3.000068 Z M 5.999601 3.000068 " stroke="#000000" stroke-width="1.5" stroke-opacity="1" stroke-miterlimit="4"/></g><g clip-path="url(#4f6a3123e2)"><path stroke-linecap="round" transform="matrix(3.4375, 0, 0, 3.4375, -3.731832, -3.547105)" fill="none" stroke-linejoin="miter" d="M 14.000398 2.200067 C 13.353807 2.069385 12.684489 2.000067 12.000398 2.000067 C 10.178807 2.000067 8.470852 2.486431 7.000397 3.337567 M 21.800399 10.000068 C 21.931081 10.646659 22.000399 11.314841 22.000399 12.000069 C 22.000399 17.522797 17.523126 22.00007 12.000398 22.00007 C 10.400398 22.00007 8.887898 21.623933 7.546988 20.956888 C 7.191307 20.779615 6.784488 20.720524 6.399261 20.822797 L 4.173124 21.418252 C 3.207215 21.677343 2.323124 20.793252 2.581079 19.826206 L 3.17767 17.600069 C 3.279942 17.215978 3.220852 16.80916 3.043579 16.452342 C 2.375397 15.111433 2.000397 13.600069 2.000397 12.000069 C 2.000397 10.178477 2.486761 8.470523 3.337897 7.000068 " stroke="#000000" stroke-width="1.5" stroke-opacity="1" stroke-miterlimit="4"/></g><path fill="#000000" d="M 28.410156 57.796875 C 27.925781 57.796875 27.457031 57.703125 27.011719 57.519531 C 26.5625 57.332031 26.164062 57.070312 25.820312 56.726562 C 25.480469 56.382812 25.214844 55.984375 25.027344 55.535156 C 24.84375 55.089844 24.75 54.621094 24.75 54.136719 L 24.75 25.414062 C 24.75 24.738281 24.925781 24.109375 25.273438 23.527344 C 25.621094 22.949219 26.09375 22.5 26.6875 22.179688 C 27.285156 21.863281 27.921875 21.722656 28.597656 21.753906 C 29.273438 21.789062 29.890625 21.996094 30.453125 22.371094 L 51.863281 36.734375 C 52.113281 36.902344 52.339844 37.097656 52.539062 37.320312 C 52.742188 37.542969 52.914062 37.785156 53.054688 38.050781 C 53.195312 38.316406 53.304688 38.59375 53.375 38.886719 C 53.449219 39.175781 53.484375 39.472656 53.484375 39.773438 C 53.484375 40.074219 53.449219 40.371094 53.375 40.664062 C 53.304688 40.953125 53.195312 41.230469 53.054688 41.496094 C 52.914062 41.761719 52.742188 42.007812 52.539062 42.230469 C 52.339844 42.453125 52.113281 42.648438 51.863281 42.816406 L 30.453125 57.175781 C 29.835938 57.589844 29.15625 57.796875 28.410156 57.796875 Z M 29.644531 55.972656 Z M 28.417969 24.640625 C 28.289062 24.640625 28.164062 24.671875 28.050781 24.734375 C 27.773438 24.875 27.640625 25.101562 27.644531 25.414062 L 27.644531 54.136719 C 27.644531 54.441406 27.777344 54.667969 28.050781 54.8125 C 28.320312 54.957031 28.585938 54.945312 28.839844 54.773438 L 50.253906 40.414062 C 50.480469 40.261719 50.59375 40.046875 50.59375 39.773438 C 50.597656 39.5 50.484375 39.285156 50.253906 39.136719 L 28.839844 24.773438 C 28.710938 24.6875 28.570312 24.640625 28.417969 24.640625 Z M 28.417969 24.640625 " fill-opacity="1" fill-rule="nonzero"/></svg>